<?xml version="1.0" encoding="UTF-8"?><svg id="Calque_1" xmlns="http://www.w3.org/2000/svg" viewBox="0 0 111.61 110"><defs><style>.cls-1{fill:#00aa9a;}.cls-2{fill:#1f2344;}.cls-3{fill:#fab334;}.cls-4{fill:#585857;}</style></defs><path class="cls-1" d="m11.4,92.98c0,2.72-2.21,4.5-4.96,4.5H0v-15.35h6.01c2.68,0,4.85,1.73,4.85,4.39,0,1.27-.5,2.28-1.34,3,1.14.72,1.89,1.91,1.89,3.46Zm-7.89-7.57v2.72h2.5c.79,0,1.34-.57,1.34-1.36s-.53-1.36-1.34-1.36h-2.5Zm4.39,7.3c0-.86-.57-1.47-1.45-1.47h-2.94v2.94h2.94c.88,0,1.45-.61,1.45-1.47Z"/><path class="cls-1" d="m12.5,89.8c0-4.52,3.57-7.98,7.98-7.98s7.98,3.46,7.98,7.98-3.57,7.98-7.98,7.98-7.98-3.46-7.98-7.98Zm12.46,0c0-2.74-1.97-4.56-4.47-4.56s-4.47,1.82-4.47,4.56,1.97,4.56,4.47,4.56,4.47-1.82,4.47-4.56Z"/><path class="cls-1" d="m29.78,89.8c0-4.52,3.57-7.98,7.98-7.98s7.98,3.46,7.98,7.98-3.57,7.98-7.98,7.98-7.98-3.46-7.98-7.98Zm12.46,0c0-2.74-1.97-4.56-4.47-4.56s-4.47,1.82-4.47,4.56,1.97,4.56,4.47,4.56,4.47-1.82,4.47-4.56Z"/><path class="cls-1" d="m56.13,97.47l-4.91-7.1v7.1h-3.51v-15.35h3.51v6.67l4.69-6.67h3.99l-5.18,7.48,5.39,7.87h-3.99Z"/><path class="cls-2" d="m76.79,97.47h-3.51v-8.92l-3.97,6.51h-.39l-3.97-6.51v8.92h-3.51v-15.35h3.51l4.17,6.82,4.17-6.82h3.51v15.35Z"/><path class="cls-2" d="m90.56,86.51v10.96h-3.29v-1.03c-.72.83-1.8,1.34-3.27,1.34-2.87,0-5.24-2.52-5.24-5.79s2.37-5.79,5.24-5.79c1.47,0,2.54.5,3.27,1.34v-1.03h3.29Zm-3.29,5.48c0-1.64-1.1-2.68-2.61-2.68s-2.61,1.03-2.61,2.68,1.1,2.68,2.61,2.68,2.61-1.03,2.61-2.68Z"/><path class="cls-2" d="m99.55,86.29v3.73c-1.36-.22-3.29.33-3.29,2.5v4.96h-3.29v-10.96h3.29v1.95c.44-1.47,1.91-2.17,3.29-2.17Z"/><path class="cls-2" d="m107.88,97.47l-3.51-4.85v4.85h-3.29v-15.35h3.29v9.19l3.29-4.8h3.84l-3.99,5.48,4.1,5.48h-3.73Z"/><path class="cls-1" d="m67.42,5.16l-31.59,9.01c-4.33,1.23-6.84,5.75-5.6,10.07l6.94,24.33,39.43-11.25-9.18-32.17Z"/><path class="cls-2" d="m78.48,36.63L68.99,3.37c-.7-2.46-3.27-3.89-5.73-3.19l-5.03,1.44-28.47,8.12c-5.23,1.49-8.28,6.97-6.78,12.2l10.29,36.07.23.81c1.24,4.33,5.2,7.16,9.5,7.16.57,0,1.15-.05,1.73-.15v-3.52s.02,0,.03,0c-.01,0-.02,0-.03,0-1.64.46-3.37.26-4.86-.57-1.5-.84-2.59-2.2-3.06-3.86l-.23-.81c-.47-1.65-.27-3.39.56-4.89.84-1.5,2.21-2.59,3.86-3.06l28.47-8.12,7.84-2.24c.91-.26,1.44-1.21,1.18-2.13Zm-9.96,1.05l-28.47,8.12c-2.29.65-4.23,2.08-5.53,4.06l-8.24-28.87c-.97-3.41,1.01-6.98,4.42-7.95l28.47-8.12,5.03-1.44c.64-.18,1.3.19,1.48.83l9.02,31.61-6.18,1.76Z"/><path class="cls-2" d="m82,55.24l-7.84,2.24-17.24,4.92v-3.58l16.29-4.65,7.84-2.24c.91-.26,1.86.27,2.13,1.18.26.91-.27,1.86-1.18,2.13Z"/><polygon class="cls-3" points="54.99 52.4 54.99 70.49 50.78 67.53 46.57 70.49 46.57 57.14 50.78 55.23 46.57 56.53 46.57 54.81 54.99 52.4"/><path class="cls-2" d="m78.46,47.43l-23.47,6.7-6.2,1.77-2.22.63-2.03.58c-.15.04-.31.06-.46.06-.72,0-1.39-.48-1.6-1.21-.25-.88.26-1.8,1.14-2.05l33.93-9.68c.88-.25,1.8.26,2.05,1.14.25.88-.26,1.8-1.14,2.05Z"/><path class="cls-4" d="m5.68,109.03h-2.11v-4.82h1.88c.33,0,.61.04.84.12.24.08.41.18.53.32.22.25.33.53.33.84,0,.38-.12.66-.36.84-.09.06-.15.1-.18.12-.03.02-.09.04-.17.08.3.06.54.2.71.4.18.2.27.46.27.76,0,.34-.11.63-.34.89-.27.3-.74.45-1.39.45Zm-1.3-2.82h1.03c.59,0,.88-.2.88-.6,0-.23-.07-.4-.21-.5-.14-.1-.36-.15-.66-.15h-1.04v1.25Zm0,2.07h1.28c.3,0,.53-.05.69-.14s.24-.27.24-.53c0-.43-.34-.64-1.03-.64h-1.17v1.32Z"/><path class="cls-4" d="m8.95,104.21h.81v4.82h-.81v-4.82Z"/><path class="cls-4" d="m13.73,109.03h-2.11v-4.82h1.88c.33,0,.61.04.84.12.24.08.41.18.53.32.22.25.33.53.33.84,0,.38-.12.66-.36.84-.09.06-.15.1-.18.12-.03.02-.09.04-.17.08.3.06.54.2.71.4.18.2.27.46.27.76,0,.34-.11.63-.34.89-.27.3-.74.45-1.39.45Zm-1.3-2.82h1.03c.59,0,.88-.2.88-.6,0-.23-.07-.4-.21-.5-.14-.1-.36-.15-.66-.15h-1.04v1.25Zm0,2.07h1.28c.3,0,.53-.05.69-.14s.24-.27.24-.53c0-.43-.34-.64-1.03-.64h-1.17v1.32Z"/><path class="cls-4" d="m17,109.03v-4.82h.81v4.05h2.2v.77h-3.01Z"/><path class="cls-4" d="m21.42,104.21h.81v4.82h-.81v-4.82Z"/><path class="cls-4" d="m28.13,108.36c-.49.48-1.09.71-1.81.71s-1.32-.24-1.81-.71c-.49-.48-.73-1.07-.73-1.78s.24-1.3.73-1.78c.49-.48,1.09-.71,1.81-.71s1.32.24,1.81.71c.49.48.73,1.07.73,1.78s-.24,1.3-.73,1.78Zm-.6-3.02c-.33-.34-.73-.51-1.21-.51s-.88.17-1.21.51c-.33.34-.49.75-.49,1.24s.16.9.49,1.24c.33.34.73.51,1.21.51s.88-.17,1.21-.51c.33-.34.49-.75.49-1.24s-.16-.9-.49-1.24Z"/><path class="cls-4" d="m32.09,104.95v4.07h-.81v-4.07h-1.46v-.74h3.74v.74h-1.46Z"/><path class="cls-4" d="m34.95,109.03v-4.82h.81v2.09h2.39v-2.09h.81v4.82h-.81v-1.97h-2.39v1.97h-.81Z"/><path class="cls-4" d="m44.21,104.21v.77h-2.57v1.28h2.31v.72h-2.31v1.29h2.65v.77h-3.47v-4.82h3.39Zm-1.15-.4h-.7l-.84-.66.81-.34.73,1Z"/><path class="cls-4" d="m48.18,109.07h-.1c-.72,0-1.32-.23-1.81-.71-.49-.48-.73-1.07-.73-1.78s.24-1.3.73-1.78c.49-.48,1.09-.71,1.81-.71s1.32.24,1.81.71c.49.48.73,1.07.73,1.78,0,.54-.14,1.01-.43,1.43-.29.42-.68.72-1.16.9.16.21.35.31.59.31.17,0,.35-.05.51-.14.17-.09.3-.21.38-.36l.46.64c-.4.42-.86.63-1.37.63-.29,0-.58-.08-.85-.25-.27-.17-.46-.39-.57-.68Zm1.11-3.72c-.33-.34-.73-.51-1.21-.51s-.88.17-1.21.51c-.33.34-.49.75-.49,1.24s.16.9.49,1.24c.33.34.73.51,1.21.51s.88-.17,1.21-.51c.33-.34.49-.75.49-1.24s-.16-.9-.49-1.24Z"/><path class="cls-4" d="m53.24,107.92c.22.26.52.39.9.39s.68-.13.9-.39c.22-.26.33-.61.33-1.05v-2.67h.81v2.7c0,.69-.19,1.23-.57,1.6-.38.37-.87.56-1.47.56s-1.09-.19-1.47-.56c-.38-.37-.57-.91-.57-1.6v-2.7h.81v2.67c0,.44.11.79.33,1.05Z"/><path class="cls-4" d="m61.36,104.21v.77h-2.57v1.28h2.31v.72h-2.31v1.29h2.65v.77h-3.47v-4.82h3.39Z"/><path class="cls-4" d="m67.6,109.03h-.91l-1.94-4.82h.91l1.48,3.6,1.48-3.6h.91l-1.94,4.82Z"/><path class="cls-4" d="m70.75,104.21h.81v4.82h-.81v-4.82Z"/><path class="cls-4" d="m77.26,105.77c0,.8-.35,1.3-1.04,1.5l1.26,1.75h-1.03l-1.15-1.62h-1.07v1.62h-.81v-4.82h1.79c.74,0,1.26.12,1.58.37s.48.65.48,1.19Zm-1.08.68c.17-.14.25-.37.25-.69s-.09-.53-.26-.65c-.17-.12-.47-.18-.91-.18h-1.03v1.72h1.01c.46,0,.77-.07.94-.21Z"/><path class="cls-4" d="m80.71,104.95v4.07h-.81v-4.07h-1.46v-.74h3.74v.74h-1.46Z"/><path class="cls-4" d="m84.65,107.92c.22.26.52.39.9.39s.68-.13.9-.39c.22-.26.33-.61.33-1.05v-2.67h.81v2.7c0,.69-.19,1.23-.57,1.6-.38.37-.87.56-1.47.56s-1.09-.19-1.47-.56c-.38-.37-.57-.91-.57-1.6v-2.7h.81v2.67c0,.44.11.79.33,1.05Z"/><path class="cls-4" d="m92.76,104.21v.77h-2.57v1.28h2.31v.72h-2.31v1.29h2.65v.77h-3.47v-4.82h3.39Z"/><path class="cls-4" d="m94.4,109.03v-4.82h.81v4.05h2.2v.77h-3.01Z"/><path class="cls-4" d="m98.82,109.03v-4.82h.81v4.05h2.2v.77h-3.01Z"/><path class="cls-4" d="m106.63,104.21v.77h-2.57v1.28h2.31v.72h-2.31v1.29h2.65v.77h-3.47v-4.82h3.39Z"/></svg>