<?xml version="1.0" encoding="utf-8"?>
<!-- Generator: Adobe Illustrator 27.4.1, SVG Export Plug-In . SVG Version: 6.00 Build 0)  -->
<svg version="1.1" id="Calque_1" xmlns="http://www.w3.org/2000/svg" xmlns:xlink="http://www.w3.org/1999/xlink" x="0px" y="0px"
	 viewBox="0 0 111.6 110" style="enable-background:new 0 0 111.6 110;" xml:space="preserve">
<style type="text/css">
	.st0{fill:#00AA9A;}
	.st1{fill:#FFFFFF;}
	.st2{fill:#FAB334;}
</style>
<path class="st0" d="M11.4,93c0,2.7-2.2,4.5-5,4.5H0V82.1h6c2.7,0,4.9,1.7,4.9,4.4c0,1.3-0.5,2.3-1.3,3C10.7,90.2,11.4,91.4,11.4,93
	L11.4,93z M3.5,85.4v2.7H6c0.8,0,1.3-0.6,1.3-1.4S6.8,85.4,6,85.4H3.5z M7.9,92.7c0-0.9-0.6-1.5-1.4-1.5H3.5v2.9h2.9
	C7.3,94.2,7.9,93.6,7.9,92.7z"/>
<path class="st0" d="M12.5,89.8c0-4.5,3.6-8,8-8s8,3.5,8,8s-3.6,8-8,8S12.5,94.3,12.5,89.8z M25,89.8c0-2.7-2-4.6-4.5-4.6
	S16,87.1,16,89.8s2,4.6,4.5,4.6S25,92.5,25,89.8z"/>
<path class="st0" d="M29.8,89.8c0-4.5,3.6-8,8-8s8,3.5,8,8s-3.6,8-8,8S29.8,94.3,29.8,89.8z M42.2,89.8c0-2.7-2-4.6-4.5-4.6
	s-4.5,1.8-4.5,4.6s2,4.6,4.5,4.6S42.2,92.5,42.2,89.8z"/>
<path class="st0" d="M56.1,97.5l-4.9-7.1v7.1h-3.5V82.1h3.5v6.7l4.7-6.7h4l-5.2,7.5l5.4,7.9L56.1,97.5L56.1,97.5z"/>
<path class="st1" d="M76.8,97.5h-3.5v-8.9l-4,6.5h-0.4l-4-6.5v8.9h-3.5V82.1h3.5l4.2,6.8l4.2-6.8h3.5L76.8,97.5L76.8,97.5z"/>
<path class="st1" d="M90.6,86.5v11h-3.3v-1c-0.7,0.8-1.8,1.3-3.3,1.3c-2.9,0-5.2-2.5-5.2-5.8s2.4-5.8,5.2-5.8c1.5,0,2.5,0.5,3.3,1.3
	v-1C87.3,86.5,90.6,86.5,90.6,86.5z M87.3,92c0-1.6-1.1-2.7-2.6-2.7S82,90.3,82,92s1.1,2.7,2.6,2.7S87.3,93.6,87.3,92z"/>
<path class="st1" d="M99.6,86.3V90c-1.4-0.2-3.3,0.3-3.3,2.5v5H93v-11h3.3v1.9C96.7,87,98.2,86.3,99.6,86.3L99.6,86.3z"/>
<path class="st1" d="M107.9,97.5l-3.5-4.8v4.8h-3.3V82.1h3.3v9.2l3.3-4.8h3.8l-4,5.5l4.1,5.5C111.6,97.5,107.9,97.5,107.9,97.5z"/>
<path class="st0" d="M67.4,5.2l-31.6,9c-4.3,1.2-6.8,5.8-5.6,10.1l6.9,24.3l39.4-11.2L67.4,5.2L67.4,5.2z"/>
<path class="st1" d="M78.5,36.6L69,3.4c-0.7-2.5-3.3-3.9-5.7-3.2l-5,1.4L29.8,9.7c-5.2,1.5-8.3,7-6.8,12.2L33.3,58l0.2,0.8
	c1.2,4.3,5.2,7.2,9.5,7.2c0.6,0,1.2-0.1,1.7-0.2v-3.5c0,0,0,0,0,0c0,0,0,0,0,0c-1.6,0.5-3.4,0.3-4.9-0.6c-1.5-0.8-2.6-2.2-3.1-3.9
	l-0.2-0.8c-0.5-1.7-0.3-3.4,0.6-4.9c0.8-1.5,2.2-2.6,3.9-3.1L69.5,41l7.8-2.2C78.2,38.5,78.8,37.5,78.5,36.6L78.5,36.6z M68.5,37.7
	l-28.5,8.1c-2.3,0.7-4.2,2.1-5.5,4.1L26.3,21c-1-3.4,1-7,4.4-8l28.5-8.1l5-1.4c0.6-0.2,1.3,0.2,1.5,0.8l9,31.6
	C74.7,35.9,68.5,37.7,68.5,37.7z"/>
<path class="st1" d="M82,55.2l-7.8,2.2l-17.2,4.9v-3.6l16.3-4.7l7.8-2.2c0.9-0.3,1.9,0.3,2.1,1.2C83.4,54,82.9,55,82,55.2z"/>
<polygon class="st2" points="55,52.4 55,70.5 50.8,67.5 46.6,70.5 46.6,57.1 50.8,55.2 46.6,56.5 46.6,54.8 "/>
<path class="st1" d="M78.5,47.4L55,54.1l-6.2,1.8l-2.2,0.6l-2,0.6c-0.2,0-0.3,0.1-0.5,0.1c-0.7,0-1.4-0.5-1.6-1.2
	c-0.2-0.9,0.3-1.8,1.1-2l33.9-9.7c0.9-0.2,1.8,0.3,2.1,1.1S79.3,47.2,78.5,47.4L78.5,47.4z"/>
<path class="st1" d="M5.7,109H3.6v-4.8h1.9c0.3,0,0.6,0,0.8,0.1c0.2,0.1,0.4,0.2,0.5,0.3c0.2,0.2,0.3,0.5,0.3,0.8
	c0,0.4-0.1,0.7-0.4,0.8c-0.1,0.1-0.2,0.1-0.2,0.1c0,0-0.1,0-0.2,0.1c0.3,0.1,0.5,0.2,0.7,0.4c0.2,0.2,0.3,0.5,0.3,0.8
	c0,0.3-0.1,0.6-0.3,0.9C6.8,108.9,6.3,109,5.7,109L5.7,109z M4.4,106.2h1c0.6,0,0.9-0.2,0.9-0.6c0-0.2-0.1-0.4-0.2-0.5
	S5.7,105,5.4,105h-1V106.2z M4.4,108.3h1.3c0.3,0,0.5-0.1,0.7-0.1s0.2-0.3,0.2-0.5c0-0.4-0.3-0.6-1-0.6H4.4L4.4,108.3L4.4,108.3z"/>
<path class="st1" d="M8.9,104.2h0.8v4.8H8.9V104.2z"/>
<path class="st1" d="M13.7,109h-2.1v-4.8h1.9c0.3,0,0.6,0,0.8,0.1c0.2,0.1,0.4,0.2,0.5,0.3c0.2,0.2,0.3,0.5,0.3,0.8
	c0,0.4-0.1,0.7-0.4,0.8c-0.1,0.1-0.1,0.1-0.2,0.1c0,0-0.1,0-0.2,0.1c0.3,0.1,0.5,0.2,0.7,0.4c0.2,0.2,0.3,0.5,0.3,0.8
	c0,0.3-0.1,0.6-0.3,0.9C14.9,108.9,14.4,109,13.7,109L13.7,109z M12.4,106.2h1c0.6,0,0.9-0.2,0.9-0.6c0-0.2-0.1-0.4-0.2-0.5
	s-0.4-0.2-0.7-0.2h-1V106.2z M12.4,108.3h1.3c0.3,0,0.5-0.1,0.7-0.1s0.2-0.3,0.2-0.5c0-0.4-0.3-0.6-1-0.6h-1.2L12.4,108.3
	L12.4,108.3z"/>
<path class="st1" d="M17,109v-4.8h0.8v4.1H20v0.8H17z"/>
<path class="st1" d="M21.4,104.2h0.8v4.8h-0.8V104.2z"/>
<path class="st1" d="M28.1,108.4c-0.5,0.5-1.1,0.7-1.8,0.7s-1.3-0.2-1.8-0.7c-0.5-0.5-0.7-1.1-0.7-1.8s0.2-1.3,0.7-1.8
	c0.5-0.5,1.1-0.7,1.8-0.7s1.3,0.2,1.8,0.7c0.5,0.5,0.7,1.1,0.7,1.8S28.6,107.9,28.1,108.4z M27.5,105.3c-0.3-0.3-0.7-0.5-1.2-0.5
	s-0.9,0.2-1.2,0.5c-0.3,0.3-0.5,0.8-0.5,1.2s0.2,0.9,0.5,1.2s0.7,0.5,1.2,0.5s0.9-0.2,1.2-0.5c0.3-0.3,0.5-0.8,0.5-1.2
	S27.9,105.7,27.5,105.3z"/>
<path class="st1" d="M32.1,104.9v4.1h-0.8v-4.1h-1.5v-0.7h3.7v0.7H32.1L32.1,104.9z"/>
<path class="st1" d="M35,109v-4.8h0.8v2.1h2.4v-2.1H39v4.8h-0.8v-2h-2.4v2H35z"/>
<path class="st1" d="M44.2,104.2v0.8h-2.6v1.3H44v0.7h-2.3v1.3h2.7v0.8h-3.5v-4.8L44.2,104.2L44.2,104.2z M43.1,103.8h-0.7l-0.8-0.7
	l0.8-0.3L43.1,103.8z"/>
<path class="st1" d="M48.2,109.1L48.2,109.1c-0.8,0-1.4-0.2-1.9-0.7c-0.5-0.5-0.7-1.1-0.7-1.8s0.2-1.3,0.7-1.8
	c0.5-0.5,1.1-0.7,1.8-0.7s1.3,0.2,1.8,0.7c0.5,0.5,0.7,1.1,0.7,1.8c0,0.5-0.1,1-0.4,1.4s-0.7,0.7-1.2,0.9c0.2,0.2,0.3,0.3,0.6,0.3
	c0.2,0,0.3-0.1,0.5-0.1c0.2-0.1,0.3-0.2,0.4-0.4l0.5,0.6c-0.4,0.4-0.9,0.6-1.4,0.6c-0.3,0-0.6-0.1-0.8-0.2
	C48.5,109.6,48.3,109.3,48.2,109.1L48.2,109.1z M49.3,105.3c-0.3-0.3-0.7-0.5-1.2-0.5s-0.9,0.2-1.2,0.5c-0.3,0.3-0.5,0.8-0.5,1.2
	s0.2,0.9,0.5,1.2s0.7,0.5,1.2,0.5s0.9-0.2,1.2-0.5c0.3-0.3,0.5-0.8,0.5-1.2S49.6,105.7,49.3,105.3z"/>
<path class="st1" d="M53.2,107.9c0.2,0.3,0.5,0.4,0.9,0.4s0.7-0.1,0.9-0.4s0.3-0.6,0.3-1.1v-2.7h0.8v2.7c0,0.7-0.2,1.2-0.6,1.6
	c-0.4,0.4-0.9,0.6-1.5,0.6s-1.1-0.2-1.5-0.6c-0.4-0.4-0.6-0.9-0.6-1.6v-2.7h0.8v2.7C52.9,107.3,53,107.7,53.2,107.9z"/>
<path class="st1" d="M61.4,104.2v0.8h-2.6v1.3h2.3v0.7h-2.3v1.3h2.7v0.8H58v-4.8L61.4,104.2L61.4,104.2z"/>
<path class="st1" d="M67.6,109h-0.9l-1.9-4.8h0.9l1.5,3.6l1.5-3.6h0.9L67.6,109L67.6,109z"/>
<path class="st1" d="M70.8,104.2h0.8v4.8h-0.8V104.2z"/>
<path class="st1" d="M77.3,105.8c0,0.8-0.3,1.3-1,1.5l1.3,1.8h-1l-1.2-1.6h-1.1v1.6h-0.8v-4.8h1.8c0.7,0,1.3,0.1,1.6,0.4
	S77.3,105.2,77.3,105.8L77.3,105.8z M76.2,106.4c0.2-0.1,0.2-0.4,0.2-0.7s-0.1-0.5-0.3-0.7c-0.2-0.1-0.5-0.2-0.9-0.2h-1v1.7h1
	C75.7,106.6,76,106.6,76.2,106.4L76.2,106.4z"/>
<path class="st1" d="M80.7,104.9v4.1h-0.8v-4.1h-1.5v-0.7h3.7v0.7H80.7L80.7,104.9z"/>
<path class="st1" d="M84.7,107.9c0.2,0.3,0.5,0.4,0.9,0.4s0.7-0.1,0.9-0.4s0.3-0.6,0.3-1.1v-2.7h0.8v2.7c0,0.7-0.2,1.2-0.6,1.6
	c-0.4,0.4-0.9,0.6-1.5,0.6s-1.1-0.2-1.5-0.6c-0.4-0.4-0.6-0.9-0.6-1.6v-2.7h0.8v2.7C84.3,107.3,84.4,107.7,84.7,107.9z"/>
<path class="st1" d="M92.8,104.2v0.8h-2.6v1.3h2.3v0.7h-2.3v1.3h2.7v0.8h-3.5v-4.8L92.8,104.2L92.8,104.2z"/>
<path class="st1" d="M94.4,109v-4.8h0.8v4.1h2.2v0.8C97.4,109,94.4,109,94.4,109z"/>
<path class="st1" d="M98.8,109v-4.8h0.8v4.1h2.2v0.8C101.8,109,98.8,109,98.8,109z"/>
<path class="st1" d="M106.6,104.2v0.8h-2.6v1.3h2.3v0.7h-2.3v1.3h2.7v0.8h-3.5v-4.8L106.6,104.2L106.6,104.2z"/>
</svg>
